<svg width="19" height="19" viewBox="0 0 19 19" fill="none" xmlns="http://www.w3.org/2000/svg">
<path fill-rule="evenodd" clip-rule="evenodd" d="M14.4957 11.5037L18.9653 16.0375L16.7153 18.3438L12.131 13.8708C10.9747 14.5903 9.63967 14.9707 8.27783 14.9688C4.23908 14.9688 0.965332 11.6871 0.965332 7.65625C0.965332 3.6175 4.24696 0.34375 8.27783 0.34375C12.3166 0.34375 15.5903 3.62538 15.5903 7.65625C15.5924 9.01587 15.2131 10.3488 14.4957 11.5037ZM3.21196 7.60225C3.21196 10.3923 5.47771 12.6647 8.27446 12.6647C11.0645 12.6647 13.337 10.3979 13.337 7.60225C13.337 4.81225 11.0701 2.53975 8.27446 2.53975C5.48446 2.53975 3.21196 4.8055 3.21196 7.60225Z" fill="black"/>
</svg>
